<svg xmlns="http://www.w3.org/2000/svg" viewBox="0 0 250.696 131.673">
  <g id="Group_3" data-name="Group 3" transform="translate(-125.573 -127.368)">
    <path id="Path_9" data-name="Path 9" d="M371.252,218.661a63.786,63.786,0,0,1-26.559,31.113,66.507,66.507,0,0,1-76.394-6.109,64.21,64.21,0,0,1-17.236-22.583,63.732,63.732,0,0,1-25.508,28.692,66.518,66.518,0,0,1-76.4-6.109,65.2,65.2,0,0,1-5.351-5.011,68.7,68.7,0,0,1-13.826-22.193c-5.573-14.668-6.024-31.112-.391-45.562,10.361-26.467,34.072-43.169,61.835-43.531h43.647c12.248,0,21.742,9.347,22.049,21.766a23.658,23.658,0,0,1-1.127,7.829,65.969,65.969,0,0,1,54.576-29.6h43.647c12.249,0,21.742,9.347,22.05,21.766a22.786,22.786,0,0,1-5.747,15.967c.451.928.846,1.886,1.242,2.842C380.713,190.065,373.517,213.9,371.252,218.661Z" fill="#0e3c56"/>
    <g id="Group_2" data-name="Group 2">
      <path id="Path_10" data-name="Path 10" d="M354.85,160.891c13.732-.689,13.541-22.275-.641-22.275H310.72c-23.5.323-43.03,14.756-51.495,36.393-8.119,20.734-.606,45.984,16.263,60a55.346,55.346,0,0,0,63.481,5.065c20.221-11.968,29.325-35.629,25.182-58.239A49.363,49.363,0,0,0,354.85,160.891ZM335.915,213.6a29.774,29.774,0,0,1-9.223,7.781,27.517,27.517,0,0,1-4.752,2.25c-1.112.4-2.255.71-3.393,1.018-.369.1-3.377.67-3.25.707-18.094,2.122-32.813-9.293-36.477-26.575-1.59-7.527.379-16.1,5-23.457,4.048-6.439,11.37-11.335,19.068-13.419,3.362-.907,3.922-.9,7.832-.951a31.6,31.6,0,0,1,12.325,2.371c-1.8-.649,1.639.769,1.607.747,1.039.512,2.04,1.106,3.041,1.7a19.848,19.848,0,0,1,5.049,3.85,32.55,32.55,0,0,1,9.1,14.97,14.66,14.66,0,1,0,.062,17.133A31.129,31.129,0,0,1,335.915,213.6Z" fill="#fff"/>
      <path id="Path_11" data-name="Path 11" d="M235.7,160.891c13.734-.689,13.541-22.275-.64-22.275H191.57c-23.5.323-43.032,14.756-51.5,36.393-8.112,20.734-.605,45.984,16.264,60a55.345,55.345,0,0,0,63.48,5.065c20.223-11.968,29.326-35.629,25.184-58.239A49.368,49.368,0,0,0,235.7,160.891ZM216.766,213.6a29.8,29.8,0,0,1-9.219,7.781,27.45,27.45,0,0,1-4.758,2.25c-1.11.4-2.254.71-3.392,1.018-.37.1-3.377.67-3.251.707-18.092,2.122-32.813-9.293-36.476-26.575-1.6-7.527.38-16.1,5-23.457,4.047-6.439,11.368-11.335,19.068-13.419,3.36-.907,3.921-.9,7.832-.951a31.6,31.6,0,0,1,12.325,2.371c-1.8-.649,1.644.769,1.606.747,1.045.512,2.041,1.106,3.041,1.7a19.965,19.965,0,0,1,5.055,3.85,32.564,32.564,0,0,1,9.1,14.97,14.661,14.661,0,1,0,.061,17.133A31.124,31.124,0,0,1,216.766,213.6Z" fill="#fff"/>
    </g>
  </g>
</svg>
