<?xml version="1.0" encoding="UTF-8"?>
<svg id="Layer_2" data-name="Layer 2" xmlns="http://www.w3.org/2000/svg" viewBox="0 0 742.95 221.31">
  <defs>
    <style>
      .cls-1 {
        fill: #fff;
      }

      .cls-2 {
        fill: #0e3c56;
      }
    </style>
  </defs>
  <g id="Layer_1-2" data-name="Layer 1">
    <g>
      <path class="cls-2" d="m742.49,162.7c-1.44,11.83-9.89,20.28-20.78,21.01,3.46,3.94,5.52,9.21,5.52,15.15,0,5.63-1.92,10.95-5.44,15.04-4.11,4.76-10.02,7.41-16.64,7.41h-28.07c-22.05-.28-41.93-11.07-54.04-28.44.53,1.97.81,4.08.79,6.28-.05,12.64-9.49,22.16-21.88,22.16h-.31c-6.34-.08-12.73-1.35-18.47-3.69-17.89-7.35-31.09-22.5-36.52-41.48v22.73c0,6.62-2.62,12.53-7.38,16.64-4.06,3.49-9.38,5.44-15.01,5.44-6.08,0-11.46-2.14-15.43-5.72-4.65,2.17-9.55,3.75-14.61,4.68-4.22.76-8.54,1.16-12.82,1.16-24.05,0-45.42-11.83-57.17-31.68-.03-.03-.03-.06-.03-.09-.96,2.82-2.45,5.55-4.53,8.08-12.28,15.06-30.75,23.71-50.66,23.71-9.15,0-18.08-1.83-26.5-5.38-15.69-6.64-28.13-19.88-34.61-35.54-5.24,12.9-14.39,23.94-26.56,31.11-10.22,6.06-21.93,9.27-33.85,9.27-15.51,0-30.63-5.46-42.55-15.38-7.44-6.17-13.27-13.97-17.24-22.58-5.37,11.85-14.13,21.97-25.51,28.69-10.22,6.06-21.94,9.27-33.85,9.27-15.51,0-30.63-5.46-42.55-15.38-1.89-1.58-3.66-3.24-5.35-5.01-.53,12.14-9.77,21.15-21.85,21.15h-.28c-6.36-.08-12.73-1.35-18.47-3.69-20.44-8.39-34.78-27-38.35-49.81-1.38-8.84-1.49-17.43-1.49-24.78V22.05C0,9.49,9.63,0,22.41,0s22.44,9.49,22.44,22.05v123.68c0,8.59.11,14.28,2.45,20.53.2.37.96,2,.96,2,.28.53.59,1.13.93,1.66.28.45.59.88.9,1.33l.22.31c.68.76,1.52,1.66,2.34,2.34l.85.62c.62.37,1.26.76,1.97,1.1.14.06,1.24.45,1.55.57.25.06.51.14.79.2.33.03.7.06.96.08,2.79.03,5.43.56,7.85,1.52-5.57-14.67-6.02-31.11-.39-45.56,10.36-26.47,34.07-43.17,61.84-43.53h43.65c12.25,0,21.74,9.35,22.05,21.77.06,2.76-.34,5.41-1.13,7.83,12.23-18.28,32.08-29.29,54.58-29.59h43.65c12.25,0,21.74,9.35,22.05,21.77.14,6.28-2.03,11.86-5.75,15.97.45.93.85,1.89,1.24,2.84,6.54-15.32,18.56-27.79,34.1-34.38,8.42-3.58,17.34-5.38,26.47-5.38,19.94,0,38.41,8.65,50.69,23.68,2.11,2.59,3.63,5.41,4.56,8.31,1.75-3.04,3.81-5.97,6.11-8.73,12.28-14.78,31.29-23.59,50.86-23.59,7.66,0,15.04,1.35,21.91,4.05,19.77,7.74,34.08,22.89,40.21,41.65V22.05c0-12.56,9.66-22.05,22.44-22.05s22.42,9.49,22.42,22.05v123.68c0,8.59.14,14.28,2.48,20.53.16.37.92,2,.92,2,.31.53.62,1.1.96,1.66.28.48.59.9.87,1.33l.25.31c.93,1.04,1.66,1.77,2.34,2.34l.85.62c.59.37,1.27.73,1.94,1.1.14.06,1.27.45,1.55.57.25.06.53.14.81.2.31.03.68.06.93.08,5.95.06,11.18,2.34,15.04,6.14-.56-1.21-1.09-2.48-1.61-3.75-9.82-25.03-2.75-54.71,17.16-72.17,12.55-11.01,28.52-17.09,44.88-17.09,10.39,0,20.75,2.53,29.93,7.32,24.16,12.62,38.24,39.05,35.01,65.81Z"/>
      <g>
        <path class="cls-1" d="m291.5,122.4c13.73-.69,13.54-22.27-.64-22.27h-43.49c-23.5.32-43.03,14.76-51.5,36.39-8.12,20.73-.61,45.98,16.26,60,17.93,14.89,43.39,16.96,63.48,5.07,20.22-11.97,29.33-35.63,25.18-58.24-1.43-7.8-4.71-14.88-9.3-20.95Zm-18.93,52.71c-3.3,3.98-5.4,5.52-9.22,7.78-2.07,1.23-3.77,1.9-4.75,2.25-1.11.4-2.25.71-3.39,1.02-.37.1-3.38.67-3.25.71-18.09,2.12-32.81-9.29-36.48-26.57-1.59-7.53.38-16.1,5-23.46,4.05-6.44,11.37-11.33,19.07-13.42,3.36-.91,3.92-.9,7.83-.95,4.73.07,7.2.52,12.33,2.37-1.8-.65,1.64.77,1.61.75,1.04.51,2.04,1.11,3.04,1.7,2.79,1.65,2.68,1.66,5.05,3.85,4.49,4.15,7.55,9.5,9.1,14.97-2.66-3.66-6.95-6.06-11.83-6.06-8.1,0-14.67,6.57-14.67,14.66s6.57,14.67,14.67,14.67c4.91,0,9.23-2.44,11.89-6.14-1.19,4.48-3.25,8.56-5.99,11.88Z"/>
        <path class="cls-1" d="m172.34,122.4c13.73-.69,13.54-22.27-.64-22.27h-43.49c-23.5.32-43.03,14.76-51.5,36.39-8.11,20.73-.61,45.98,16.26,60,17.93,14.89,43.39,16.96,63.48,5.07,20.22-11.97,29.33-35.63,25.18-58.24-1.43-7.8-4.71-14.88-9.3-20.95Zm-18.93,52.71c-3.31,3.98-5.4,5.52-9.22,7.78-2.07,1.23-3.78,1.9-4.76,2.25-1.11.4-2.25.71-3.39,1.02-.37.1-3.38.67-3.25.71-18.09,2.12-32.81-9.29-36.48-26.57-1.59-7.53.38-16.1,5-23.46,4.05-6.44,11.37-11.33,19.07-13.42,3.36-.91,3.92-.9,7.83-.95,4.73.07,7.2.52,12.32,2.37-1.8-.65,1.64.77,1.61.75,1.04.51,2.04,1.11,3.04,1.7,2.79,1.65,2.68,1.66,5.05,3.85,4.49,4.15,7.55,9.49,9.1,14.97-2.66-3.66-6.95-6.06-11.82-6.06-8.11,0-14.67,6.57-14.67,14.66s6.56,14.67,14.67,14.67c4.91,0,9.22-2.44,11.88-6.14-1.19,4.48-3.24,8.56-5.99,11.88Z"/>
        <path class="cls-1" d="m58.44,187.7c-.5,0-1.74-.13-2.34-.18-.75-.16-1.49-.34-2.23-.53-.52-.14-2.26-.81-2.82-1.01-1.21-.58-2.38-1.23-3.52-1.94-.39-.25-.76-.52-1.14-.78-.34-.25-.85-.64-1.04-.8-1.29-1.11-2.47-2.34-3.6-3.61-.11-.13-.45-.57-.73-.93-.46-.65-.89-1.31-1.32-1.98-.52-.83-.99-1.68-1.46-2.54-.15-.28-1.13-2.46-1.23-2.6-3.33-8.51-3.41-16.06-3.41-25.09V22.05c0-14.4-22.34-14.4-22.34,0v120.96c0,7.76.15,15.3,1.36,23.05,2.85,18.25,14.34,34.09,31.48,41.12,4.52,1.85,9.46,2.81,14.34,2.86,14.41.17,14.39-22.17,0-22.34Z"/>
        <path class="cls-1" d="m601.76,187.7c-.5,0-1.73-.13-2.34-.18-.75-.16-1.49-.34-2.23-.53-.52-.14-2.25-.81-2.82-1.01-1.21-.58-2.38-1.23-3.52-1.94-.39-.25-.76-.52-1.14-.78-.34-.25-.85-.64-1.04-.8-1.29-1.11-2.47-2.34-3.6-3.61-.11-.13-.46-.57-.73-.93-.46-.65-.9-1.31-1.32-1.98-.52-.83-.99-1.68-1.46-2.54-.15-.28-1.13-2.46-1.23-2.6-3.33-8.51-3.42-16.06-3.42-25.09V22.05c0-14.4-22.33-14.4-22.33,0v120.96c0,7.76.15,15.3,1.36,23.05,2.85,18.25,14.33,34.09,31.48,41.12,4.52,1.85,9.46,2.81,14.34,2.86,14.42.17,14.4-22.17,0-22.34Z"/>
        <path class="cls-1" d="m359.96,124.32c.76-.22,1.53-.41,2.3-.59-.05,0,2.25-.39,2.31-.45,3.92-.44,7.68-.26,11.1.46,8.16,1.72,14.13,6.02,19.47,12.56,3.86,4.73,11.82,3.98,15.8,0,4.63-4.62,3.84-11.09,0-15.8-15.46-18.93-41.87-24.45-64.04-15.07-19.87,8.4-32.34,28.65-32.64,49.95-.3,21.17,13.18,41.72,32.64,49.95,22.17,9.38,48.58,3.87,64.04-15.06,3.84-4.71,4.63-11.17,0-15.8-3.98-3.98-11.95-4.72-15.8,0-5.13,6.29-10.6,10.13-18.14,12.23-3.92,1.09-7.41,1.16-11.76.86-.3-.03-.52-.05-.71-.07-1.16-.18-2.29-.45-3.43-.73-.76-.19-1.52-.41-2.28-.65.07.02-2.24-.82-2.18-.74-1.26-.56-2.49-1.21-3.7-1.88-.67-.38-1.33-.79-1.97-1.21.05.03-1.72-1.24-1.87-1.3-1.35-1.11-2.62-2.32-3.83-3.56-1.56-1.6-1.98-2.23-2.6-3.11-2.31-3.27-3.63-6.28-4.46-8.82-1.46-4.42-1.54-5.74-1.6-10.1-.19-13.24,7.71-24.38,20.49-30.2-1.33.6,2.44-.74,2.86-.86Z"/>
        <path class="cls-1" d="m498.98,103.88c-20.73-8.11-45.98-.6-60,16.27-14.89,17.93-16.96,43.39-5.07,63.49,11.97,20.22,35.63,29.33,58.24,25.18,7.8-1.43,14.87-4.71,20.94-9.3.69,13.73,22.28,13.54,22.28-.64v-43.49c-.33-23.49-14.76-43.03-36.39-51.5Zm11.69,63.83c.65-1.8-.77,1.64-.75,1.61-.51,1.04-1.11,2.04-1.69,3.04-1.65,2.79-1.66,2.68-3.86,5.05-5.72,6.19-13.7,9.7-21.19,10.22-8.71.61-16.94-2.19-22.79-7.05-3.98-3.3-5.52-5.4-7.78-9.22-1.23-2.07-1.9-3.77-2.25-4.75-.4-1.12-.71-2.26-1.02-3.4-.1-.37-.67-3.38-.71-3.25-2.13-18.09,9.29-32.81,26.57-36.48,7.53-1.6,16.1.38,23.46,5,6.43,4.05,11.33,11.36,13.41,19.07.91,3.36.9,3.92.95,7.83-.07,4.74-.52,7.21-2.36,12.33Z"/>
        <path class="cls-1" d="m702.27,106.88c-20.5-10.69-45.06-6.76-62.19,8.26-16.42,14.39-21.98,39.44-14.09,59.6,8.28,21.16,28.34,34.99,51.07,35.3h28.09c14.41,0,14.41-22.34,0-22.34h-28.09c-4.43-.06-5.6-.25-10.1-1.59-2.49-.75-1.52-.39-3.83-1.52-1.73-.85-3.38-1.88-4.98-2.95-.9-.61-1.47-1.08-3.11-2.6-1.31-1.21-2.49-2.55-3.63-3.91-.09-.14-.27-.39-.6-.83-.66-.95-1.25-1.95-1.84-2.94-.39-.67-.75-1.35-1.11-2.04.02.03-.82-1.93-.92-2.1-2.61-6.95-2.77-13.32-1.24-19.66,1.6-6.66,4.86-11.69,10.18-16.61,1.88-1.73,1.11-1.04,3.23-2.46,1.61-1.07,3.33-1.97,5.07-2.82.97-.47,1.77-.7,3.92-1.35.76-.21,1.52-.41,2.3-.59-.04.02,2.51-.43,2.29-.45,7.62-.87,13.59.43,19.35,3.43,6.26,3.27,10.29,7.57,13.7,13.7,1.72,3.09,2.32,5.16,3.23,9.46.02.1.04.19.05.29h-38.41c-14.4,0-14.4,22.34,0,22.34h49.53c6.64,0,10.44-5.13,11.17-11.17,2.68-22.14-9.36-44.19-29.03-54.46Z"/>
      </g>
    </g>
  </g>
</svg>